<mxfile host="Electron" agent="Mozilla/5.0 (X11; Linux x86_64) AppleWebKit/537.36 (KHTML, like Gecko) draw.io/24.7.8 Chrome/128.0.6613.36 Electron/32.0.1 Safari/537.36" version="24.7.8">
  <diagram name="PÃ¡gina-1" id="DQzEEQfy4HQifwaw-xGO">
    <mxGraphModel dx="1114" dy="870" grid="1" gridSize="10" guides="1" tooltips="1" connect="1" arrows="1" fold="1" page="1" pageScale="1" pageWidth="827" pageHeight="1169" math="0" shadow="0">
      <root>
        <mxCell id="0" />
        <mxCell id="1" parent="0" />
        <mxCell id="H75KyYor-yfhUkXxfCXm-1" value="&lt;h1&gt;Vecino&lt;/h1&gt;" style="rounded=0;whiteSpace=wrap;html=1;fillColor=#ffff88;strokeColor=#36393d;" vertex="1" parent="1">
          <mxGeometry x="40" y="170" width="390" height="60" as="geometry" />
        </mxCell>
        <mxCell id="H75KyYor-yfhUkXxfCXm-2" value="&lt;h1&gt;Responsable&lt;/h1&gt;" style="rounded=0;whiteSpace=wrap;html=1;fillColor=#ffff88;strokeColor=#36393d;" vertex="1" parent="1">
          <mxGeometry x="450" y="170" width="180" height="60" as="geometry" />
        </mxCell>
        <mxCell id="H75KyYor-yfhUkXxfCXm-3" value="&lt;h1&gt;Interactuar con aplicacion&lt;/h1&gt;" style="rounded=0;whiteSpace=wrap;html=1;fillColor=#cdeb8b;strokeColor=#36393d;" vertex="1" parent="1">
          <mxGeometry x="40" y="250" width="390" height="60" as="geometry" />
        </mxCell>
        <mxCell id="H75KyYor-yfhUkXxfCXm-4" value="&lt;h1&gt;Mantener&lt;/h1&gt;" style="rounded=0;whiteSpace=wrap;html=1;fillColor=#cdeb8b;strokeColor=#36393d;" vertex="1" parent="1">
          <mxGeometry x="450" y="250" width="180" height="60" as="geometry" />
        </mxCell>
        <mxCell id="H75KyYor-yfhUkXxfCXm-5" value="&lt;h1&gt;Usar herramienta&lt;/h1&gt;" style="rounded=0;whiteSpace=wrap;html=1;fillColor=#cce5ff;strokeColor=#36393d;" vertex="1" parent="1">
          <mxGeometry x="40" y="330" width="230" height="60" as="geometry" />
        </mxCell>
        <mxCell id="H75KyYor-yfhUkXxfCXm-6" value="&lt;h1&gt;Reportar&lt;/h1&gt;" style="rounded=0;whiteSpace=wrap;html=1;fillColor=#cce5ff;strokeColor=#36393d;" vertex="1" parent="1">
          <mxGeometry x="290" y="330" width="140" height="60" as="geometry" />
        </mxCell>
        <mxCell id="H75KyYor-yfhUkXxfCXm-7" value="&lt;h1&gt;Controlar&lt;/h1&gt;" style="rounded=0;whiteSpace=wrap;html=1;fillColor=#cce5ff;strokeColor=#36393d;" vertex="1" parent="1">
          <mxGeometry x="450" y="330" width="180" height="60" as="geometry" />
        </mxCell>
        <mxCell id="H75KyYor-yfhUkXxfCXm-8" value="&lt;h1&gt;US1&lt;/h1&gt;" style="whiteSpace=wrap;html=1;aspect=fixed;fillColor=#ffcccc;strokeColor=#36393d;" vertex="1" parent="1">
          <mxGeometry x="115" y="410" width="80" height="80" as="geometry" />
        </mxCell>
        <mxCell id="H75KyYor-yfhUkXxfCXm-9" value="&lt;h1&gt;US2&lt;/h1&gt;" style="whiteSpace=wrap;html=1;aspect=fixed;fillColor=#ffcccc;strokeColor=#36393d;" vertex="1" parent="1">
          <mxGeometry x="115" y="510" width="80" height="80" as="geometry" />
        </mxCell>
        <mxCell id="H75KyYor-yfhUkXxfCXm-10" value="&lt;h1&gt;US4&lt;/h1&gt;" style="whiteSpace=wrap;html=1;aspect=fixed;fillColor=#ffcccc;strokeColor=#36393d;" vertex="1" parent="1">
          <mxGeometry x="115" y="610" width="80" height="80" as="geometry" />
        </mxCell>
        <mxCell id="H75KyYor-yfhUkXxfCXm-11" value="&lt;h1&gt;US3&lt;/h1&gt;" style="whiteSpace=wrap;html=1;aspect=fixed;fillColor=#ffcccc;strokeColor=#36393d;" vertex="1" parent="1">
          <mxGeometry x="320" y="410" width="80" height="80" as="geometry" />
        </mxCell>
        <mxCell id="H75KyYor-yfhUkXxfCXm-12" value="&lt;h1&gt;US5&lt;/h1&gt;" style="whiteSpace=wrap;html=1;aspect=fixed;fillColor=#ffcccc;strokeColor=#36393d;" vertex="1" parent="1">
          <mxGeometry x="500" y="410" width="80" height="80" as="geometry" />
        </mxCell>
        <mxCell id="H75KyYor-yfhUkXxfCXm-13" value="&lt;h1&gt;US6&lt;/h1&gt;" style="whiteSpace=wrap;html=1;aspect=fixed;fillColor=#ffcccc;strokeColor=#36393d;" vertex="1" parent="1">
          <mxGeometry x="500" y="510" width="80" height="80" as="geometry" />
        </mxCell>
      </root>
    </mxGraphModel>
  </diagram>
</mxfile>
